<mxfile host="65bd71144e" modified="2020-10-16T20:30:04.405Z" agent="5.0 (Windows NT 10.0; Win64; x64) AppleWebKit/537.36 (KHTML, like Gecko) Code/1.50.1 Chrome/83.0.4103.122 Electron/9.2.1 Safari/537.36" version="13.6.5" etag="vz4efYA99IVQSSai9Y53">
    <diagram id="fA6azRL6-MkVZgtUbeT8" name="Página-1">
        <mxGraphModel dx="1253" dy="686" grid="1" gridSize="10" guides="1" tooltips="1" connect="1" arrows="1" fold="1" page="1" pageScale="1" pageWidth="827" pageHeight="1169" background="#ffffff" math="0" shadow="1">
            <root>
                <mxCell id="0"/>
                <mxCell id="1" parent="0"/>
                <mxCell id="5" value="" style="strokeColor=none;fillColor=none;fontSize=11;spacing=3;strokeOpacity=100;rounded=1;absoluteArcSize=1;arcSize=7.199999999999999;strokeWidth=2;html=1;" vertex="1" zOrder="1" parent="1">
                    <mxGeometry x="144" y="96" width="536" height="577" as="geometry"/>
                </mxCell>
                <mxCell id="6" value="" style="shape=curlyBracket;rounded=1;fontSize=11;spacing=3;strokeColor=#5e5e5e;strokeOpacity=100;fillColor=FFFFFF;strokeWidth=2;" vertex="1" parent="5">
                    <mxGeometry x="72" width="60" height="480" as="geometry"/>
                </mxCell>
                <mxCell id="7" value="ACTUADORES EN ROBOTICA " style="strokeColor=none;fillColor=none;fontSize=11;spacing=3;strokeOpacity=100;rounded=1;absoluteArcSize=1;arcSize=7.199999999999999;strokeWidth=2;" vertex="1" parent="5">
                    <mxGeometry width="72" height="480" as="geometry"/>
                </mxCell>
                <mxCell id="8" value="" style="strokeColor=none;fillColor=none;fontSize=11;spacing=3;strokeOpacity=100;rounded=1;absoluteArcSize=1;arcSize=7.199999999999999;strokeWidth=2;html=1;" vertex="1" zOrder="3" parent="1">
                    <mxGeometry x="276" y="57" width="120" height="159" as="geometry"/>
                </mxCell>
                <mxCell id="9" value="" style="shape=curlyBracket;rounded=1;fontSize=11;spacing=3;strokeColor=#5e5e5e;strokeOpacity=100;fillColor=FFFFFF;strokeWidth=2;" vertex="1" parent="8">
                    <mxGeometry x="100.125" width="19.875" height="159" as="geometry"/>
                </mxCell>
                <mxCell id="10" value="HIDRAULICOS " style="strokeColor=none;fillColor=none;fontSize=11;spacing=3;strokeOpacity=100;rounded=1;absoluteArcSize=1;arcSize=7.199999999999999;strokeWidth=2;" vertex="1" parent="8">
                    <mxGeometry width="100.125" height="159" as="geometry"/>
                </mxCell>
                <mxCell id="11" value="" style="strokeColor=none;fillColor=none;fontSize=11;spacing=3;strokeOpacity=100;rounded=1;absoluteArcSize=1;arcSize=7.199999999999999;strokeWidth=2;html=1;" vertex="1" zOrder="4" parent="1">
                    <mxGeometry x="288" y="252" width="108" height="156" as="geometry"/>
                </mxCell>
                <mxCell id="12" value="" style="shape=curlyBracket;rounded=1;fontSize=11;spacing=3;strokeColor=#5e5e5e;strokeOpacity=100;fillColor=FFFFFF;strokeWidth=2;" vertex="1" parent="11">
                    <mxGeometry x="88.5" width="19.5" height="156" as="geometry"/>
                </mxCell>
                <mxCell id="13" value="NEUMÁTICOS" style="strokeColor=none;fillColor=none;fontSize=11;spacing=3;strokeOpacity=100;rounded=1;absoluteArcSize=1;arcSize=7.199999999999999;strokeWidth=2;" vertex="1" parent="11">
                    <mxGeometry width="88.5" height="156" as="geometry"/>
                </mxCell>
                <mxCell id="14" value="" style="strokeColor=none;fillColor=none;fontSize=11;spacing=3;strokeOpacity=100;rounded=1;absoluteArcSize=1;arcSize=7.199999999999999;strokeWidth=2;html=1;" vertex="1" zOrder="5" parent="1">
                    <mxGeometry x="289" y="436" width="600" height="307" as="geometry"/>
                </mxCell>
                <mxCell id="15" value="" style="shape=curlyBracket;rounded=1;fontSize=11;spacing=3;strokeColor=#5e5e5e;strokeOpacity=100;fillColor=FFFFFF;strokeWidth=2;" vertex="1" parent="14">
                    <mxGeometry x="86.5" width="21.5" height="172" as="geometry"/>
                </mxCell>
                <mxCell id="16" value="ELÉCTRICOS" style="strokeColor=none;fillColor=none;fontSize=11;spacing=3;strokeOpacity=100;rounded=1;absoluteArcSize=1;arcSize=7.199999999999999;strokeWidth=2;" vertex="1" parent="14">
                    <mxGeometry width="86.5" height="172" as="geometry"/>
                </mxCell>
                <mxCell id="17" value="" style="strokeColor=none;fillColor=none;fontSize=11;spacing=3;strokeOpacity=100;rounded=1;absoluteArcSize=1;arcSize=7.199999999999999;strokeWidth=2;html=1;" vertex="1" zOrder="6" parent="1">
                    <mxGeometry x="409" y="55" width="107" height="39" as="geometry"/>
                </mxCell>
                <mxCell id="18" value="" style="shape=curlyBracket;rounded=1;fontSize=11;spacing=3;strokeColor=#5e5e5e;strokeOpacity=100;fillColor=FFFFFF;strokeWidth=2;" vertex="1" parent="17">
                    <mxGeometry x="102.125" width="4.875" height="39" as="geometry"/>
                </mxCell>
                <mxCell id="19" value="Funcionan" style="strokeColor=none;fillColor=none;fontSize=11;spacing=3;strokeOpacity=100;rounded=1;absoluteArcSize=1;arcSize=7.199999999999999;strokeWidth=2;" vertex="1" parent="17">
                    <mxGeometry width="102.125" height="39" as="geometry"/>
                </mxCell>
                <UserObject label="&lt;div style=&quot;font-size:13px;color:#333333;text-align: left;&quot;&gt;♦ Con fluidos a presión &#10;&lt;/div&gt;&lt;div style=&quot;font-size:13px;color:#333333;text-align: left;&quot;&gt;♦  Aceite mineral.&lt;/div&gt;" lucidchartObjectId="xkuFIpr0YDJK" id="20">
                    <mxCell style="html=1;whiteSpace=wrap;;overflow=width;spacing=3;verticalAlign=middle;strokeOpacity=0;fillOpacity=0;rounded=1;absoluteArcSize=1;arcSize=7.199999999999999;fillColor=#ffffff;strokeWidth=2;" vertex="1" zOrder="7" parent="1">
                        <mxGeometry x="528" y="47" width="144" height="54" as="geometry"/>
                    </mxCell>
                </UserObject>
                <mxCell id="21" value="" style="strokeColor=none;fillColor=none;fontSize=11;spacing=3;strokeOpacity=100;rounded=1;absoluteArcSize=1;arcSize=7.199999999999999;strokeWidth=2;html=1;" vertex="1" zOrder="8" parent="1">
                    <mxGeometry x="409" y="106" width="107" height="54" as="geometry"/>
                </mxCell>
                <mxCell id="22" value="" style="shape=curlyBracket;rounded=1;fontSize=11;spacing=3;strokeColor=#5e5e5e;strokeOpacity=100;fillColor=FFFFFF;strokeWidth=2;" vertex="1" parent="21">
                    <mxGeometry x="100.25" width="6.75" height="54" as="geometry"/>
                </mxCell>
                <mxCell id="23" value="Caracteristicas " style="strokeColor=none;fillColor=none;fontSize=11;spacing=3;strokeOpacity=100;rounded=1;absoluteArcSize=1;arcSize=7.199999999999999;strokeWidth=2;" vertex="1" parent="21">
                    <mxGeometry width="100.25" height="54" as="geometry"/>
                </mxCell>
                <UserObject label="&lt;div style=&quot;font-size:13px;color:#333333;text-align: left;&quot;&gt;♦ Rapidos&#10;&lt;/div&gt;&lt;div style=&quot;font-size:13px;color:#333333;text-align: left;&quot;&gt;♦ Alta capacidad de carga &#10;&lt;/div&gt;&lt;div style=&quot;font-size:13px;color:#333333;text-align: left;&quot;&gt;♦ Presentan estabilidad CE.&lt;/div&gt;" lucidchartObjectId="-luFyIGjQ8Wm" id="24">
                    <mxCell style="html=1;whiteSpace=wrap;;overflow=width;spacing=3;verticalAlign=middle;strokeOpacity=0;fillOpacity=0;rounded=1;absoluteArcSize=1;arcSize=7.199999999999999;fillColor=#ffffff;strokeWidth=2;" vertex="1" zOrder="9" parent="1">
                        <mxGeometry x="528" y="82" width="192" height="102" as="geometry"/>
                    </mxCell>
                </UserObject>
                <mxCell id="25" value="" style="strokeColor=none;fillColor=none;fontSize=11;spacing=3;strokeOpacity=100;rounded=1;absoluteArcSize=1;arcSize=7.199999999999999;strokeWidth=2;html=1;" vertex="1" zOrder="10" parent="1">
                    <mxGeometry x="409" y="172" width="107" height="54" as="geometry"/>
                </mxCell>
                <mxCell id="26" value="" style="shape=curlyBracket;rounded=1;fontSize=11;spacing=3;strokeColor=#5e5e5e;strokeOpacity=100;fillColor=FFFFFF;strokeWidth=2;" vertex="1" parent="25">
                    <mxGeometry x="100.25" width="6.75" height="54" as="geometry"/>
                </mxCell>
                <mxCell id="27" value="Tipos " style="strokeColor=none;fillColor=none;fontSize=11;spacing=3;strokeOpacity=100;rounded=1;absoluteArcSize=1;arcSize=7.199999999999999;strokeWidth=2;" vertex="1" parent="25">
                    <mxGeometry width="100.25" height="54" as="geometry"/>
                </mxCell>
                <UserObject label="&lt;div style=&quot;font-size:13px;color:#333333;text-align: left;&quot;&gt;♦ Cilindros hidráulicos&#10;&lt;/div&gt;&lt;div style=&quot;font-size:13px;color:#333333;text-align: left;&quot;&gt;♦ Motores hidráulicos&#10;&lt;/div&gt;&lt;div style=&quot;font-size:13px;color:#333333;text-align: left;&quot;&gt;♦ Valvulas hidráulicos&lt;/div&gt;" lucidchartObjectId="kquFef_h3C-S" id="28">
                    <mxCell style="html=1;whiteSpace=wrap;;overflow=width;spacing=3;verticalAlign=middle;strokeOpacity=0;fillOpacity=0;rounded=1;absoluteArcSize=1;arcSize=7.199999999999999;fillColor=#ffffff;strokeWidth=2;" vertex="1" zOrder="11" parent="1">
                        <mxGeometry x="528" y="166" width="192" height="57" as="geometry"/>
                    </mxCell>
                </UserObject>
                <mxCell id="29" value="" style="strokeColor=none;fillColor=none;fontSize=11;spacing=3;strokeOpacity=100;rounded=1;absoluteArcSize=1;arcSize=7.199999999999999;strokeWidth=2;html=1;" vertex="1" zOrder="12" parent="1">
                    <mxGeometry x="408" y="245" width="107" height="39" as="geometry"/>
                </mxCell>
                <mxCell id="30" value="" style="shape=curlyBracket;rounded=1;fontSize=11;spacing=3;strokeColor=#5e5e5e;strokeOpacity=100;fillColor=FFFFFF;strokeWidth=2;" vertex="1" parent="29">
                    <mxGeometry x="102.125" width="4.875" height="39" as="geometry"/>
                </mxCell>
                <mxCell id="31" value="Funcionan" style="strokeColor=none;fillColor=none;fontSize=11;spacing=3;strokeOpacity=100;rounded=1;absoluteArcSize=1;arcSize=7.199999999999999;strokeWidth=2;" vertex="1" parent="29">
                    <mxGeometry width="102.125" height="39" as="geometry"/>
                </mxCell>
                <UserObject label="♦ Con la energia acomulada en el aire ." lucidchartObjectId="3tuFBASVAvjI" id="32">
                    <mxCell style="html=1;whiteSpace=wrap;;fontSize=13;fontColor=#333333;align=left;spacing=3;verticalAlign=middle;strokeOpacity=0;fillOpacity=0;rounded=1;absoluteArcSize=1;arcSize=7.199999999999999;fillColor=#ffffff;strokeWidth=2;" vertex="1" zOrder="13" parent="1">
                        <mxGeometry x="527" y="238" width="144" height="54" as="geometry"/>
                    </mxCell>
                </UserObject>
                <mxCell id="33" value="" style="strokeColor=none;fillColor=none;fontSize=11;spacing=3;strokeOpacity=100;rounded=1;absoluteArcSize=1;arcSize=7.199999999999999;strokeWidth=2;html=1;" vertex="1" zOrder="14" parent="1">
                    <mxGeometry x="408" y="296" width="107" height="54" as="geometry"/>
                </mxCell>
                <mxCell id="34" value="" style="shape=curlyBracket;rounded=1;fontSize=11;spacing=3;strokeColor=#5e5e5e;strokeOpacity=100;fillColor=FFFFFF;strokeWidth=2;" vertex="1" parent="33">
                    <mxGeometry x="100.25" width="6.75" height="54" as="geometry"/>
                </mxCell>
                <mxCell id="35" value="Caracteristicas " style="strokeColor=none;fillColor=none;fontSize=11;spacing=3;strokeOpacity=100;rounded=1;absoluteArcSize=1;arcSize=7.199999999999999;strokeWidth=2;" vertex="1" parent="33">
                    <mxGeometry width="100.25" height="54" as="geometry"/>
                </mxCell>
                <UserObject label="&lt;div style=&quot;font-size:13px;color:#333333;text-align: left;&quot;&gt;♦ Bajo costo&#10;&lt;/div&gt;&lt;div style=&quot;font-size:13px;color:#333333;text-align: left;&quot;&gt;♦ Rapidez &#10;&lt;/div&gt;&lt;div style=&quot;font-size:13px;color:#333333;text-align: left;&quot;&gt;♦Sencillo y Robusto.&lt;/div&gt;" lucidchartObjectId="3tuFnYH8TAUu" id="36">
                    <mxCell style="html=1;whiteSpace=wrap;;overflow=width;spacing=3;verticalAlign=middle;strokeOpacity=0;fillOpacity=0;rounded=1;absoluteArcSize=1;arcSize=7.199999999999999;fillColor=#ffffff;strokeWidth=2;" vertex="1" zOrder="15" parent="1">
                        <mxGeometry x="527" y="272" width="192" height="102" as="geometry"/>
                    </mxCell>
                </UserObject>
                <mxCell id="37" value="" style="strokeColor=none;fillColor=none;fontSize=11;spacing=3;strokeOpacity=100;rounded=1;absoluteArcSize=1;arcSize=7.199999999999999;strokeWidth=2;html=1;" vertex="1" zOrder="16" parent="1">
                    <mxGeometry x="408" y="362" width="107" height="54" as="geometry"/>
                </mxCell>
                <mxCell id="38" value="" style="shape=curlyBracket;rounded=1;fontSize=11;spacing=3;strokeColor=#5e5e5e;strokeOpacity=100;fillColor=FFFFFF;strokeWidth=2;" vertex="1" parent="37">
                    <mxGeometry x="100.25" width="6.75" height="54" as="geometry"/>
                </mxCell>
                <mxCell id="39" value="Tipos " style="strokeColor=none;fillColor=none;fontSize=11;spacing=3;strokeOpacity=100;rounded=1;absoluteArcSize=1;arcSize=7.199999999999999;strokeWidth=2;" vertex="1" parent="37">
                    <mxGeometry width="100.25" height="54" as="geometry"/>
                </mxCell>
                <UserObject label="&lt;div style=&quot;font-size:13px;color:#333333;text-align: left;&quot;&gt;♦ Cilindros neumáticos&#10;&lt;/div&gt;&lt;div style=&quot;font-size:13px;color:#333333;text-align: left;&quot;&gt;♦ Motores neumáticos&lt;/div&gt;" lucidchartObjectId="3tuF0X0koWy." id="40">
                    <mxCell style="html=1;whiteSpace=wrap;;overflow=width;spacing=3;verticalAlign=middle;strokeOpacity=0;fillOpacity=0;rounded=1;absoluteArcSize=1;arcSize=7.199999999999999;fillColor=#ffffff;strokeWidth=2;" vertex="1" zOrder="17" parent="1">
                        <mxGeometry x="527" y="356" width="192" height="57" as="geometry"/>
                    </mxCell>
                </UserObject>
                <mxCell id="41" value="" style="strokeColor=none;fillColor=none;fontSize=11;spacing=3;strokeOpacity=100;rounded=1;absoluteArcSize=1;arcSize=7.199999999999999;strokeWidth=2;html=1;" vertex="1" zOrder="18" parent="1">
                    <mxGeometry x="409" y="436" width="107" height="39" as="geometry"/>
                </mxCell>
                <mxCell id="42" value="" style="shape=curlyBracket;rounded=1;fontSize=11;spacing=3;strokeColor=#5e5e5e;strokeOpacity=100;fillColor=FFFFFF;strokeWidth=2;" vertex="1" parent="41">
                    <mxGeometry x="102.125" width="4.875" height="39" as="geometry"/>
                </mxCell>
                <mxCell id="43" value="Funcionan" style="strokeColor=none;fillColor=none;fontSize=11;spacing=3;strokeOpacity=100;rounded=1;absoluteArcSize=1;arcSize=7.199999999999999;strokeWidth=2;" vertex="1" parent="41">
                    <mxGeometry width="102.125" height="39" as="geometry"/>
                </mxCell>
                <UserObject label="♦ Con elnergía electrica  que la trasnforma en energia mecanica" lucidchartObjectId="BuuFOs1K8c.q" id="44">
                    <mxCell style="html=1;whiteSpace=wrap;;fontSize=13;fontColor=#333333;align=left;spacing=3;verticalAlign=middle;strokeOpacity=0;fillOpacity=0;rounded=1;absoluteArcSize=1;arcSize=7.199999999999999;fillColor=#ffffff;strokeWidth=2;" vertex="1" zOrder="19" parent="1">
                        <mxGeometry x="528" y="420" width="168" height="70" as="geometry"/>
                    </mxCell>
                </UserObject>
                <mxCell id="45" value="" style="strokeColor=none;fillColor=none;fontSize=11;spacing=3;strokeOpacity=100;rounded=1;absoluteArcSize=1;arcSize=7.199999999999999;strokeWidth=2;html=1;" vertex="1" zOrder="20" parent="1">
                    <mxGeometry x="409" y="487" width="107" height="54" as="geometry"/>
                </mxCell>
                <mxCell id="46" value="" style="shape=curlyBracket;rounded=1;fontSize=11;spacing=3;strokeColor=#5e5e5e;strokeOpacity=100;fillColor=FFFFFF;strokeWidth=2;" vertex="1" parent="45">
                    <mxGeometry x="100.25" width="6.75" height="54" as="geometry"/>
                </mxCell>
                <mxCell id="47" value="Caracteristicas " style="strokeColor=none;fillColor=none;fontSize=11;spacing=3;strokeOpacity=100;rounded=1;absoluteArcSize=1;arcSize=7.199999999999999;strokeWidth=2;" vertex="1" parent="45">
                    <mxGeometry width="100.25" height="54" as="geometry"/>
                </mxCell>
                <UserObject label="&lt;div style=&quot;font-size:13px;color:#333333;text-align: left;&quot;&gt;♦ Preciso y fiable&#10;&lt;/div&gt;&lt;div style=&quot;font-size:13px;color:#333333;text-align: left;&quot;&gt;♦ Silenciosos &#10;&lt;/div&gt;&lt;div style=&quot;font-size:13px;color:#333333;text-align: left;&quot;&gt;♦ Son facil de instalar.&lt;/div&gt;" lucidchartObjectId="BuuFz-3uubxv" id="48">
                    <mxCell style="html=1;whiteSpace=wrap;;overflow=width;spacing=3;verticalAlign=middle;strokeOpacity=0;fillOpacity=0;rounded=1;absoluteArcSize=1;arcSize=7.199999999999999;fillColor=#ffffff;strokeWidth=2;" vertex="1" zOrder="21" parent="1">
                        <mxGeometry x="528" y="463" width="192" height="102" as="geometry"/>
                    </mxCell>
                </UserObject>
                <mxCell id="49" value="" style="strokeColor=none;fillColor=none;fontSize=11;spacing=3;strokeOpacity=100;rounded=1;absoluteArcSize=1;arcSize=7.199999999999999;strokeWidth=2;html=1;" vertex="1" zOrder="22" parent="1">
                    <mxGeometry x="409" y="553" width="107" height="54" as="geometry"/>
                </mxCell>
                <mxCell id="50" value="" style="shape=curlyBracket;rounded=1;fontSize=11;spacing=3;strokeColor=#5e5e5e;strokeOpacity=100;fillColor=FFFFFF;strokeWidth=2;" vertex="1" parent="49">
                    <mxGeometry x="100.25" width="6.75" height="54" as="geometry"/>
                </mxCell>
                <mxCell id="51" value="Tipos " style="strokeColor=none;fillColor=none;fontSize=11;spacing=3;strokeOpacity=100;rounded=1;absoluteArcSize=1;arcSize=7.199999999999999;strokeWidth=2;" vertex="1" parent="49">
                    <mxGeometry width="100.25" height="54" as="geometry"/>
                </mxCell>
                <UserObject label="&lt;div style=&quot;font-size:13px;color:#333333;text-align: left;&quot;&gt;♦ Motores de corriente continua&#10;&lt;/div&gt;&lt;div style=&quot;font-size:13px;color:#333333;text-align: left;&quot;&gt;♦ Motores  de corriente alterna&#10;&lt;/div&gt;&lt;div style=&quot;font-size:13px;color:#333333;text-align: left;&quot;&gt;♦ Motores  de paso a paso&lt;/div&gt;" lucidchartObjectId="BuuFFqLm.2Sm" id="52">
                    <mxCell style="html=1;whiteSpace=wrap;;overflow=width;spacing=3;verticalAlign=middle;strokeOpacity=0;fillOpacity=0;rounded=1;absoluteArcSize=1;arcSize=7.199999999999999;fillColor=#ffffff;strokeWidth=2;" vertex="1" zOrder="23" parent="1">
                        <mxGeometry x="528" y="540" width="216" height="70" as="geometry"/>
                    </mxCell>
                </UserObject>
            </root>
        </mxGraphModel>
    </diagram>
</mxfile>